<svg version="1.1" xmlns="http://www.w3.org/2000/svg" xmlns:xlink="http://www.w3.org/1999/xlink" width="728.8662109375" height="748"><defs/><g><g><rect fill="#C0C0C0" stroke="none" x="63" y="343" width="139.7080078125" height="120" transform="matrix(1 0 0 1 -46 -86)" fill-opacity="0.2"/></g><g><rect fill="#ffffff" stroke="none" x="56" y="336" width="139.7080078125" height="120" transform="matrix(1 0 0 1 -46 -86)"/></g><g><path fill="none" stroke="#000000" paint-order="fill stroke markers" d=" M 10 250 L 149.7080078125 250 L 149.7080078125 370 L 10 370 L 10 250 Z Z" stroke-miterlimit="10" stroke-dasharray=""/></g><g><path fill="none" stroke="#000000" paint-order="fill stroke markers" d=" M 10 275 L 149.7080078125 275" stroke-miterlimit="10" stroke-dasharray=""/></g><g><path fill="none" stroke="#000000" paint-order="fill stroke markers" d=" M 10 358 L 149.7080078125 358" stroke-miterlimit="10" stroke-dasharray=""/></g><g><g><path fill="none" stroke="none"/><text fill="#000000" stroke="none" font-family="Arial" font-size="13px" font-style="normal" font-weight="bold" text-decoration="undefined" x="126.35400390625" y="349.5" text-anchor="middle" dominant-baseline="central" transform="matrix(1 0 0 1 -46 -86)">User</text></g></g><g><g><path fill="none" stroke="none"/><text fill="#000000" stroke="none" font-family="Arial" font-size="13px" font-style="normal" font-weight="normal" text-decoration="undefined" x="61" y="372.5" text-anchor="start" dominant-baseline="central" transform="matrix(1 0 0 1 -46 -86)">+username: String</text></g></g><g><g><path fill="none" stroke="none"/><text fill="#000000" stroke="none" font-family="Arial" font-size="13px" font-style="normal" font-weight="normal" text-decoration="undefined" x="61" y="387.5" text-anchor="start" dominant-baseline="central" transform="matrix(1 0 0 1 -46 -86)">+email: String</text></g></g><g><g><path fill="none" stroke="none"/><text fill="#000000" stroke="none" font-family="Arial" font-size="13px" font-style="normal" font-weight="normal" text-decoration="undefined" x="61" y="402.5" text-anchor="start" dominant-baseline="central" transform="matrix(1 0 0 1 -46 -86)">+password: String</text></g></g><g><g><path fill="none" stroke="none"/><text fill="#000000" stroke="none" font-family="Arial" font-size="13px" font-style="normal" font-weight="normal" text-decoration="undefined" x="61" y="417.5" text-anchor="start" dominant-baseline="central" transform="matrix(1 0 0 1 -46 -86)">+role: UserRole</text></g></g><g><g><path fill="none" stroke="none"/><text fill="#000000" stroke="none" font-family="Arial" font-size="13px" font-style="normal" font-weight="normal" text-decoration="undefined" x="61" y="432.5" text-anchor="start" dominant-baseline="central" transform="matrix(1 0 0 1 -46 -86)">+billingAddress: String</text></g></g><g><rect fill="#C0C0C0" stroke="none" x="407" y="351" width="203.52734375" height="103" transform="matrix(1 0 0 1 -46 -86)" fill-opacity="0.2"/></g><g><rect fill="#ffffff" stroke="none" x="400" y="344" width="203.52734375" height="103" transform="matrix(1 0 0 1 -46 -86)"/></g><g><path fill="none" stroke="#000000" paint-order="fill stroke markers" d=" M 354 258 L 557.52734375 258 L 557.52734375 361 L 354 361 L 354 258 Z Z" stroke-miterlimit="10" stroke-dasharray=""/></g><g><path fill="none" stroke="#000000" paint-order="fill stroke markers" d=" M 354 283 L 557.52734375 283" stroke-miterlimit="10" stroke-dasharray=""/></g><g><path fill="none" stroke="#000000" paint-order="fill stroke markers" d=" M 354 351 L 557.52734375 351" stroke-miterlimit="10" stroke-dasharray=""/></g><g><g><path fill="none" stroke="none"/><text fill="#000000" stroke="none" font-family="Arial" font-size="13px" font-style="normal" font-weight="bold" text-decoration="undefined" x="502.263671875" y="357.5" text-anchor="middle" dominant-baseline="central" transform="matrix(1 0 0 1 -46 -86)">Order</text></g></g><g><g><path fill="none" stroke="none"/><text fill="#000000" stroke="none" font-family="Arial" font-size="13px" font-style="normal" font-weight="normal" text-decoration="undefined" x="405" y="380.5" text-anchor="start" dominant-baseline="central" transform="matrix(1 0 0 1 -46 -86)">+state: OrderState</text></g></g><g><g><path fill="none" stroke="none"/><text fill="#000000" stroke="none" font-family="Arial" font-size="13px" font-style="normal" font-weight="normal" text-decoration="undefined" x="405" y="395.5" text-anchor="start" dominant-baseline="central" transform="matrix(1 0 0 1 -46 -86)">+destination: String</text></g></g><g><g><path fill="none" stroke="none"/><text fill="#000000" stroke="none" font-family="Arial" font-size="13px" font-style="normal" font-weight="normal" text-decoration="undefined" x="405" y="410.5" text-anchor="start" dominant-baseline="central" transform="matrix(1 0 0 1 -46 -86)">+registrationDate: LocalDateTime</text></g></g><g><g><path fill="none" stroke="none"/><text fill="#000000" stroke="none" font-family="Arial" font-size="13px" font-style="normal" font-weight="normal" text-decoration="undefined" x="405" y="425.5" text-anchor="start" dominant-baseline="central" transform="matrix(1 0 0 1 -46 -86)">+deliveredDate: LocalDateTime</text></g></g><g><rect fill="#C0C0C0" stroke="none" x="431" y="735" width="144.04345703125" height="90" transform="matrix(1 0 0 1 -46 -86)" fill-opacity="0.2"/></g><g><rect fill="#ffffff" stroke="none" x="424" y="728" width="144.04345703125" height="90" transform="matrix(1 0 0 1 -46 -86)"/></g><g><path fill="none" stroke="#000000" paint-order="fill stroke markers" d=" M 378 642 L 522.04345703125 642 L 522.04345703125 732 L 378 732 L 378 642 Z Z" stroke-miterlimit="10" stroke-dasharray=""/></g><g><path fill="none" stroke="#000000" paint-order="fill stroke markers" d=" M 378 667 L 522.04345703125 667" stroke-miterlimit="10" stroke-dasharray=""/></g><g><path fill="none" stroke="#000000" paint-order="fill stroke markers" d=" M 378 722 L 522.04345703125 722" stroke-miterlimit="10" stroke-dasharray=""/></g><g><g><path fill="none" stroke="none"/><text fill="#000000" stroke="none" font-family="Arial" font-size="13px" font-style="normal" font-weight="bold" text-decoration="undefined" x="496.521728515625" y="741.5" text-anchor="middle" dominant-baseline="central" transform="matrix(1 0 0 1 -46 -86)">Wheel</text></g></g><g><g><path fill="none" stroke="none"/><text fill="#000000" stroke="none" font-family="Arial" font-size="13px" font-style="normal" font-weight="normal" text-decoration="undefined" x="429" y="766.5" text-anchor="start" dominant-baseline="central" transform="matrix(1 0 0 1 -46 -86)">+load: Integer</text></g></g><g><g><path fill="none" stroke="none"/><text fill="#000000" stroke="none" font-family="Arial" font-size="13px" font-style="normal" font-weight="normal" text-decoration="undefined" x="429" y="781.5" text-anchor="start" dominant-baseline="central" transform="matrix(1 0 0 1 -46 -86)">+material: String</text></g></g><g><g><path fill="none" stroke="none"/><text fill="#000000" stroke="none" font-family="Arial" font-size="13px" font-style="normal" font-weight="normal" text-decoration="undefined" x="429" y="796.5" text-anchor="start" dominant-baseline="central" transform="matrix(1 0 0 1 -46 -86)">+size: Real</text></g></g><g><rect fill="#C0C0C0" stroke="none" x="655" y="743" width="115.8662109375" height="88" transform="matrix(1 0 0 1 -46 -86)" fill-opacity="0.2"/></g><g><rect fill="#ffffff" stroke="none" x="648" y="736" width="115.8662109375" height="88" transform="matrix(1 0 0 1 -46 -86)"/></g><g><path fill="none" stroke="#000000" paint-order="fill stroke markers" d=" M 602 650 L 717.8662109375 650 L 717.8662109375 738 L 602 738 L 602 650 Z Z" stroke-miterlimit="10" stroke-dasharray=""/></g><g><path fill="none" stroke="#000000" paint-order="fill stroke markers" d=" M 602 675 L 717.8662109375 675" stroke-miterlimit="10" stroke-dasharray=""/></g><g><path fill="none" stroke="#000000" paint-order="fill stroke markers" d=" M 602 728 L 717.8662109375 728" stroke-miterlimit="10" stroke-dasharray=""/></g><g><g><path fill="none" stroke="none"/><text fill="#000000" stroke="none" font-family="Arial" font-size="13px" font-style="normal" font-weight="bold" text-decoration="undefined" x="706.43310546875" y="749.5" text-anchor="middle" dominant-baseline="central" transform="matrix(1 0 0 1 -46 -86)">Bearing</text></g></g><g><g><path fill="none" stroke="none"/><text fill="#000000" stroke="none" font-family="Arial" font-size="13px" font-style="normal" font-weight="normal" text-decoration="undefined" x="653" y="772.5" text-anchor="start" dominant-baseline="central" transform="matrix(1 0 0 1 -46 -86)">+diameter: Integer</text></g></g><g><g><path fill="none" stroke="none"/><text fill="#000000" stroke="none" font-family="Arial" font-size="13px" font-style="normal" font-weight="normal" text-decoration="undefined" x="653" y="787.5" text-anchor="start" dominant-baseline="central" transform="matrix(1 0 0 1 -46 -86)">+material: String</text></g></g><g><g><path fill="none" stroke="none"/><text fill="#000000" stroke="none" font-family="Arial" font-size="13px" font-style="normal" font-weight="normal" text-decoration="undefined" x="653" y="802.5" text-anchor="start" dominant-baseline="central" transform="matrix(1 0 0 1 -46 -86)">+size: Real</text></g></g><g><rect fill="#C0C0C0" stroke="none" x="71" y="191" width="96.72802734375" height="76" transform="matrix(1 0 0 1 -46 -86)" fill-opacity="0.2"/></g><g><rect fill="#ffffff" stroke="none" x="64" y="184" width="96.72802734375" height="76" transform="matrix(1 0 0 1 -46 -86)"/></g><g><path fill="none" stroke="#000000" paint-order="fill stroke markers" d=" M 18 98 L 114.72802734375 98 L 114.72802734375 174 L 18 174 L 18 98 Z Z" stroke-miterlimit="10" stroke-dasharray=""/></g><g><path fill="none" stroke="#000000" paint-order="fill stroke markers" d=" M 18 136 L 114.72802734375 136" stroke-miterlimit="10" stroke-dasharray=""/></g><g><g><path fill="none" stroke="none"/><text fill="#000000" stroke="none" font-family="Arial" font-size="13px" font-style="normal" font-weight="normal" text-decoration="undefined" x="112.864013671875" y="195.5" text-anchor="middle" dominant-baseline="central" transform="matrix(1 0 0 1 -46 -86)">«enumeration»</text></g></g><g><g><path fill="none" stroke="none"/><text fill="#000000" stroke="none" font-family="Arial" font-size="13px" font-style="normal" font-weight="bold" text-decoration="undefined" x="112.864013671875" y="210.5" text-anchor="middle" dominant-baseline="central" transform="matrix(1 0 0 1 -46 -86)">UserRole</text></g></g><g><g><path fill="none" stroke="none"/><text fill="#000000" stroke="none" font-family="Arial" font-size="13px" font-style="normal" font-weight="normal" text-decoration="undefined" x="69" y="233.5" text-anchor="start" dominant-baseline="central" transform="matrix(1 0 0 1 -46 -86)">ADMIN</text></g></g><g><g><path fill="none" stroke="none"/><text fill="#000000" stroke="none" font-family="Arial" font-size="13px" font-style="normal" font-weight="normal" text-decoration="undefined" x="69" y="248.5" text-anchor="start" dominant-baseline="central" transform="matrix(1 0 0 1 -46 -86)">DEFAULT</text></g></g><g><path fill="none" stroke="#000000" paint-order="fill stroke markers" d=" M 151 310 L 353 309" stroke-miterlimit="10" stroke-dasharray=""/></g><g><rect fill="#ffffff" stroke="none" x="276" y="374" width="45.169921875" height="13" transform="matrix(1 0 0 1 -46 -86)"/></g><g><g><path fill="none" stroke="none"/><text fill="#000000" stroke="none" font-family="Arial" font-size="13px" font-style="normal" font-weight="normal" text-decoration="undefined" x="298.5849609375" y="380.5" text-anchor="middle" dominant-baseline="central" transform="matrix(1 0 0 1 -46 -86)">+places</text></g></g><g><rect fill="#ffffff" stroke="none" x="206" y="374" width="32.880859375" height="13" transform="matrix(1 0 0 1 -46 -86)"/></g><g><g><path fill="none" stroke="none"/><text fill="#000000" stroke="none" font-family="Arial" font-size="13px" font-style="normal" font-weight="normal" text-decoration="undefined" x="222.4404296875" y="380.5" text-anchor="middle" dominant-baseline="central" transform="matrix(1 0 0 1 -46 -86)">+user</text></g></g><g><rect fill="#ffffff" stroke="none" x="350" y="374" width="44.43994140625" height="13" transform="matrix(1 0 0 1 -46 -86)"/></g><g><g><path fill="none" stroke="none"/><text fill="#000000" stroke="none" font-family="Arial" font-size="13px" font-style="normal" font-weight="normal" text-decoration="undefined" x="372.219970703125" y="380.5" text-anchor="middle" dominant-baseline="central" transform="matrix(1 0 0 1 -46 -86)">+orders</text></g></g><g><rect fill="#ffffff" stroke="none" x="368" y="401" width="19.5126953125" height="13" transform="matrix(1 0 0 1 -46 -86)"/></g><g><g><path fill="none" stroke="none"/><text fill="#000000" stroke="none" font-family="Arial" font-size="13px" font-style="normal" font-weight="normal" text-decoration="undefined" x="377.75634765625" y="407.5" text-anchor="middle" dominant-baseline="central" transform="matrix(1 0 0 1 -46 -86)">0..*</text></g></g><g><rect fill="#C0C0C0" stroke="none" x="175" y="191" width="96.72802734375" height="121" transform="matrix(1 0 0 1 -46 -86)" fill-opacity="0.2"/></g><g><rect fill="#ffffff" stroke="none" x="168" y="184" width="96.72802734375" height="121" transform="matrix(1 0 0 1 -46 -86)"/></g><g><path fill="none" stroke="#000000" paint-order="fill stroke markers" d=" M 122 98 L 218.72802734375 98 L 218.72802734375 219 L 122 219 L 122 98 Z Z" stroke-miterlimit="10" stroke-dasharray=""/></g><g><path fill="none" stroke="#000000" paint-order="fill stroke markers" d=" M 122 136 L 218.72802734375 136" stroke-miterlimit="10" stroke-dasharray=""/></g><g><g><path fill="none" stroke="none"/><text fill="#000000" stroke="none" font-family="Arial" font-size="13px" font-style="normal" font-weight="normal" text-decoration="undefined" x="216.864013671875" y="195.5" text-anchor="middle" dominant-baseline="central" transform="matrix(1 0 0 1 -46 -86)">«enumeration»</text></g></g><g><g><path fill="none" stroke="none"/><text fill="#000000" stroke="none" font-family="Arial" font-size="13px" font-style="normal" font-weight="bold" text-decoration="undefined" x="216.864013671875" y="210.5" text-anchor="middle" dominant-baseline="central" transform="matrix(1 0 0 1 -46 -86)">OrderState</text></g></g><g><g><path fill="none" stroke="none"/><text fill="#000000" stroke="none" font-family="Arial" font-size="13px" font-style="normal" font-weight="normal" text-decoration="undefined" x="173" y="233.5" text-anchor="start" dominant-baseline="central" transform="matrix(1 0 0 1 -46 -86)">REGISTERED</text></g></g><g><g><path fill="none" stroke="none"/><text fill="#000000" stroke="none" font-family="Arial" font-size="13px" font-style="normal" font-weight="normal" text-decoration="undefined" x="173" y="248.5" text-anchor="start" dominant-baseline="central" transform="matrix(1 0 0 1 -46 -86)">CONFIRMED</text></g></g><g><g><path fill="none" stroke="none"/><text fill="#000000" stroke="none" font-family="Arial" font-size="13px" font-style="normal" font-weight="normal" text-decoration="undefined" x="173" y="263.5" text-anchor="start" dominant-baseline="central" transform="matrix(1 0 0 1 -46 -86)">ON_GOING</text></g></g><g><g><path fill="none" stroke="none"/><text fill="#000000" stroke="none" font-family="Arial" font-size="13px" font-style="normal" font-weight="normal" text-decoration="undefined" x="173" y="278.5" text-anchor="start" dominant-baseline="central" transform="matrix(1 0 0 1 -46 -86)">DELIVERED</text></g></g><g><g><path fill="none" stroke="none"/><text fill="#000000" stroke="none" font-family="Arial" font-size="13px" font-style="normal" font-weight="normal" text-decoration="undefined" x="173" y="293.5" text-anchor="start" dominant-baseline="central" transform="matrix(1 0 0 1 -46 -86)">CANCELED</text></g></g><g><rect fill="#C0C0C0" stroke="none" x="71" y="103" width="102.23779296875" height="38" transform="matrix(1 0 0 1 -46 -86)" fill-opacity="0.2"/></g><g><rect fill="#ffffff" stroke="none" x="64" y="96" width="102.23779296875" height="38" transform="matrix(1 0 0 1 -46 -86)"/></g><g><path fill="none" stroke="#000000" paint-order="fill stroke markers" d=" M 18 10 L 120.23779296875 10 L 120.23779296875 48 L 18 48 L 18 10 Z Z" stroke-miterlimit="10" stroke-dasharray=""/></g><g><g><path fill="none" stroke="none"/><text fill="#000000" stroke="none" font-family="Arial" font-size="13px" font-style="normal" font-weight="normal" text-decoration="undefined" x="115.618896484375" y="107.5" text-anchor="middle" dominant-baseline="central" transform="matrix(1 0 0 1 -46 -86)">«primitiveType»</text></g></g><g><g><path fill="none" stroke="none"/><text fill="#000000" stroke="none" font-family="Arial" font-size="13px" font-style="normal" font-weight="bold" text-decoration="undefined" x="115.618896484375" y="122.5" text-anchor="middle" dominant-baseline="central" transform="matrix(1 0 0 1 -46 -86)">LocalDateTime</text></g></g><g><path fill="none" stroke="#000000" paint-order="fill stroke markers" d=" M 454 362 L 452 513" stroke-miterlimit="10" stroke-dasharray=""/></g><g><rect fill="#ffffff" stroke="none" x="493" y="517" width="40.82177734375" height="13" transform="matrix(1 0 0 1 -46 -86)"/></g><g><g><path fill="none" stroke="none"/><text fill="#000000" stroke="none" font-family="Arial" font-size="13px" font-style="normal" font-weight="normal" text-decoration="undefined" x="513.410888671875" y="523.5" text-anchor="middle" dominant-baseline="central" transform="matrix(1 0 0 1 -46 -86)">+refers</text></g></g><g><rect fill="#ffffff" stroke="none" x="504" y="458" width="91.39990234375" height="13" transform="matrix(1 0 0 1 -46 -86)"/></g><g><g><path fill="none" stroke="none"/><text fill="#000000" stroke="none" font-family="Arial" font-size="13px" font-style="normal" font-weight="normal" text-decoration="undefined" x="549.699951171875" y="464.5" text-anchor="middle" dominant-baseline="central" transform="matrix(1 0 0 1 -46 -86)">+referingOrders</text></g></g><g><rect fill="#ffffff" stroke="none" x="478" y="463" width="19.5126953125" height="13" transform="matrix(1 0 0 1 -46 -86)"/></g><g><g><path fill="none" stroke="none"/><text fill="#000000" stroke="none" font-family="Arial" font-size="13px" font-style="normal" font-weight="normal" text-decoration="undefined" x="487.75634765625" y="469.5" text-anchor="middle" dominant-baseline="central" transform="matrix(1 0 0 1 -46 -86)">0..*</text></g></g><g><rect fill="#ffffff" stroke="none" x="503" y="572" width="57.45263671875" height="13" transform="matrix(1 0 0 1 -46 -86)"/></g><g><g><path fill="none" stroke="none"/><text fill="#000000" stroke="none" font-family="Arial" font-size="13px" font-style="normal" font-weight="normal" text-decoration="undefined" x="531.726318359375" y="578.5" text-anchor="middle" dominant-baseline="central" transform="matrix(1 0 0 1 -46 -86)">+products</text></g></g><g><rect fill="#ffffff" stroke="none" x="468" y="578" width="19.5126953125" height="13" transform="matrix(1 0 0 1 -46 -86)"/></g><g><g><path fill="none" stroke="none"/><text fill="#000000" stroke="none" font-family="Arial" font-size="13px" font-style="normal" font-weight="normal" text-decoration="undefined" x="477.75634765625" y="584.5" text-anchor="middle" dominant-baseline="central" transform="matrix(1 0 0 1 -46 -86)">1..*</text></g></g><g><rect fill="#C0C0C0" stroke="none" x="327" y="503" width="82.6298828125" height="58" transform="matrix(1 0 0 1 -46 -86)" fill-opacity="0.2"/></g><g><rect fill="#ffffff" stroke="none" x="320" y="496" width="82.6298828125" height="58" transform="matrix(1 0 0 1 -46 -86)"/></g><g><path fill="none" stroke="#000000" paint-order="fill stroke markers" d=" M 274 410 L 356.6298828125 410 L 356.6298828125 468 L 274 468 L 274 410 Z Z" stroke-miterlimit="10" stroke-dasharray=""/></g><g><path fill="none" stroke="#000000" paint-order="fill stroke markers" d=" M 274 435 L 356.6298828125 435" stroke-miterlimit="10" stroke-dasharray=""/></g><g><path fill="none" stroke="#000000" paint-order="fill stroke markers" d=" M 274 458 L 356.6298828125 458" stroke-miterlimit="10" stroke-dasharray=""/></g><g><g><path fill="none" stroke="none"/><text fill="#000000" stroke="none" font-family="Arial" font-size="13px" font-style="normal" font-weight="bold" text-decoration="undefined" x="361.81494140625" y="509.5" text-anchor="middle" dominant-baseline="central" transform="matrix(1 0 0 1 -46 -86)">OrderItem</text></g></g><g><g><path fill="none" stroke="none"/><text fill="#000000" stroke="none" font-family="Arial" font-size="13px" font-style="normal" font-weight="normal" text-decoration="undefined" x="325" y="532.5" text-anchor="start" dominant-baseline="central" transform="matrix(1 0 0 1 -46 -86)">+qty: Integer</text></g></g><g><path fill="none" stroke="#000000" paint-order="fill stroke markers" d=" M 358 438 L 453 437" stroke-miterlimit="10" stroke-dasharray="3"/></g><g><path fill="none" stroke="#000000" paint-order="fill stroke markers" d=" M 601 692 L 523 689" stroke-miterlimit="10" stroke-dasharray=""/></g><g><path fill="#000000" stroke="none" paint-order="stroke fill markers" d=" M 533.3169513255298 685.18417566617 L 523 689 L 532.9933815057215 693.5969909811859 L 544.9837458418889 689.8455286862265"/></g><g><path fill="none" stroke="#000000" paint-order="fill stroke markers" d=" M 533.3169513255298 685.18417566617 L 523 689 L 532.9933815057215 693.5969909811859 L 544.9837458418889 689.8455286862265 L 533.3169513255298 685.18417566617" stroke-miterlimit="10" stroke-dasharray=""/></g><g><rect fill="#ffffff" stroke="none" x="593" y="784" width="28.5517578125" height="13" transform="matrix(1 0 0 1 -46 -86)"/></g><g><g><path fill="none" stroke="none"/><text fill="#000000" stroke="none" font-family="Arial" font-size="13px" font-style="normal" font-weight="normal" text-decoration="undefined" x="607.27587890625" y="790.5" text-anchor="middle" dominant-baseline="central" transform="matrix(1 0 0 1 -46 -86)">+has</text></g></g><g><rect fill="#C0C0C0" stroke="none" x="447" y="607" width="115.853515625" height="88" transform="matrix(1 0 0 1 -46 -86)" fill-opacity="0.2"/></g><g><rect fill="#ffffff" stroke="none" x="440" y="600" width="115.853515625" height="88" transform="matrix(1 0 0 1 -46 -86)"/></g><g><path fill="none" stroke="#000000" paint-order="fill stroke markers" d=" M 394 514 L 509.853515625 514 L 509.853515625 602 L 394 602 L 394 514 Z Z" stroke-miterlimit="10" stroke-dasharray=""/></g><g><path fill="none" stroke="#000000" paint-order="fill stroke markers" d=" M 394 539 L 509.853515625 539" stroke-miterlimit="10" stroke-dasharray=""/></g><g><path fill="none" stroke="#000000" paint-order="fill stroke markers" d=" M 394 592 L 509.853515625 592" stroke-miterlimit="10" stroke-dasharray=""/></g><g><g><path fill="none" stroke="none"/><text fill="#000000" stroke="none" font-family="Arial" font-size="13px" font-style="italic" font-weight="bold" text-decoration="undefined" x="498.4267578125" y="613.5" text-anchor="middle" dominant-baseline="central" transform="matrix(1 0 0 1 -46 -86)">Product</text></g></g><g><g><path fill="none" stroke="none"/><text fill="#000000" stroke="none" font-family="Arial" font-size="13px" font-style="normal" font-weight="normal" text-decoration="undefined" x="445" y="636.5" text-anchor="start" dominant-baseline="central" transform="matrix(1 0 0 1 -46 -86)">+name: String</text></g></g><g><g><path fill="none" stroke="none"/><text fill="#000000" stroke="none" font-family="Arial" font-size="13px" font-style="normal" font-weight="normal" text-decoration="undefined" x="445" y="651.5" text-anchor="start" dominant-baseline="central" transform="matrix(1 0 0 1 -46 -86)">+price: Real</text></g></g><g><g><path fill="none" stroke="none"/><text fill="#000000" stroke="none" font-family="Arial" font-size="13px" font-style="normal" font-weight="normal" text-decoration="undefined" x="445" y="666.5" text-anchor="start" dominant-baseline="central" transform="matrix(1 0 0 1 -46 -86)">+stockQty: Integer</text></g></g><g><path fill="none" stroke="#000000" paint-order="fill stroke markers" d=" M 450 641 L 451 603" stroke-miterlimit="10" stroke-dasharray=""/></g><g><path fill="#FFFFFF" stroke="none" paint-order="stroke fill markers" d=" M 458.8814293334824 623.5397923957698 L 451 603 L 442.0491856399352 623.0968386143606"/></g><g><path fill="none" stroke="#000000" paint-order="fill stroke markers" d=" M 458.8814293334824 623.5397923957698 L 451 603 L 442.0491856399352 623.0968386143606 L 458.8814293334824 623.5397923957698" stroke-miterlimit="10" stroke-dasharray=""/></g></g></svg>